<svg width="280" height="61" viewBox="0 0 280 61" fill="none" xmlns="http://www.w3.org/2000/svg">
<path d="M5.334 12.8H0.504V8.6H14.784V12.8H9.954V38H5.334V12.8ZM17.0208 8.6H23.8668C26.2468 8.6 27.9828 9.16 29.0748 10.28C30.1668 11.372 30.7128 13.066 30.7128 15.362V17.168C30.7128 20.22 29.7048 22.152 27.6888 22.964V23.048C28.8088 23.384 29.5928 24.07 30.0408 25.106C30.5168 26.142 30.7548 27.528 30.7548 29.264V34.43C30.7548 35.27 30.7828 35.956 30.8388 36.488C30.8948 36.992 31.0348 37.496 31.2588 38H26.5548C26.3868 37.524 26.2748 37.076 26.2188 36.656C26.1628 36.236 26.1348 35.48 26.1348 34.388V29.012C26.1348 27.668 25.9108 26.73 25.4628 26.198C25.0428 25.666 24.3008 25.4 23.2368 25.4H21.6408V38H17.0208V8.6ZM23.3208 21.2C24.2448 21.2 24.9308 20.962 25.3788 20.486C25.8548 20.01 26.0928 19.212 26.0928 18.092V15.824C26.0928 14.76 25.8968 13.99 25.5048 13.514C25.1408 13.038 24.5528 12.8 23.7408 12.8H21.6408V21.2H23.3208ZM40.6803 38.42C38.4403 38.42 36.7323 37.79 35.5563 36.53C34.3803 35.242 33.7923 33.408 33.7923 31.028V8.6H38.4123V31.364C38.4123 32.372 38.6083 33.1 39.0003 33.548C39.4203 33.996 40.0083 34.22 40.7643 34.22C41.5203 34.22 42.0943 33.996 42.4863 33.548C42.9063 33.1 43.1163 32.372 43.1163 31.364V8.6H47.5683V31.028C47.5683 33.408 46.9803 35.242 45.8043 36.53C44.6283 37.79 42.9203 38.42 40.6803 38.42ZM57.3687 38.42C55.1567 38.42 53.4627 37.79 52.2867 36.53C51.1387 35.27 50.5647 33.492 50.5647 31.196V15.404C50.5647 13.108 51.1387 11.33 52.2867 10.07C53.4627 8.81 55.1567 8.18 57.3687 8.18C59.5807 8.18 61.2607 8.81 62.4087 10.07C63.5847 11.33 64.1727 13.108 64.1727 15.404V18.512H59.8047V15.11C59.8047 13.29 59.0347 12.38 57.4947 12.38C55.9547 12.38 55.1847 13.29 55.1847 15.11V31.532C55.1847 33.324 55.9547 34.22 57.4947 34.22C59.0347 34.22 59.8047 33.324 59.8047 31.532V27.038H64.1727V31.196C64.1727 33.492 63.5847 35.27 62.4087 36.53C61.2607 37.79 59.5807 38.42 57.3687 38.42ZM66.9368 8.6H71.5568V20.99L77.4368 8.6H82.0568L76.5548 19.394L82.1408 38H77.3108L73.4048 24.896L71.5568 28.634V38H66.9368V8.6ZM84.3275 8.6H90.9215L93.8615 29.642H93.9455L96.8855 8.6H103.479V38H99.1115V15.74H99.0275L95.6675 38H91.8035L88.4435 15.74H88.3595V38H84.3275V8.6ZM110.497 8.6H116.755L121.543 38H116.923L116.083 32.162V32.246H110.833L109.993 38H105.709L110.497 8.6ZM115.537 28.256L113.479 13.724H113.395L111.379 28.256H115.537ZM129.667 38.42C127.427 38.42 125.733 37.79 124.585 36.53C123.437 35.242 122.863 33.408 122.863 31.028V29.348H127.231V31.364C127.231 33.268 128.029 34.22 129.625 34.22C130.409 34.22 130.997 33.996 131.389 33.548C131.809 33.072 132.019 32.316 132.019 31.28C132.019 30.048 131.739 28.97 131.179 28.046C130.619 27.094 129.583 25.96 128.071 24.644C126.167 22.964 124.837 21.452 124.081 20.108C123.325 18.736 122.947 17.196 122.947 15.488C122.947 13.164 123.535 11.372 124.711 10.112C125.887 8.824 127.595 8.18 129.835 8.18C132.047 8.18 133.713 8.824 134.833 10.112C135.981 11.372 136.555 13.192 136.555 15.572V16.79H132.187V15.278C132.187 14.27 131.991 13.542 131.599 13.094C131.207 12.618 130.633 12.38 129.877 12.38C128.337 12.38 127.567 13.318 127.567 15.194C127.567 16.258 127.847 17.252 128.407 18.176C128.995 19.1 130.045 20.22 131.557 21.536C133.489 23.216 134.819 24.742 135.547 26.114C136.275 27.486 136.639 29.096 136.639 30.944C136.639 33.352 136.037 35.2 134.833 36.488C133.657 37.776 131.935 38.42 129.667 38.42ZM142.9 12.8H138.07V8.6H152.35V12.8H147.52V38H142.9V12.8ZM154.587 8.6H167.187V12.8H159.207V20.57H165.549V24.77H159.207V33.8H167.187V38H154.587V8.6ZM169.845 8.6H176.691C179.071 8.6 180.807 9.16 181.899 10.28C182.991 11.372 183.537 13.066 183.537 15.362V17.168C183.537 20.22 182.529 22.152 180.513 22.964V23.048C181.633 23.384 182.417 24.07 182.865 25.106C183.341 26.142 183.579 27.528 183.579 29.264V34.43C183.579 35.27 183.607 35.956 183.663 36.488C183.719 36.992 183.859 37.496 184.083 38H179.379C179.211 37.524 179.099 37.076 179.043 36.656C178.987 36.236 178.959 35.48 178.959 34.388V29.012C178.959 27.668 178.735 26.73 178.287 26.198C177.867 25.666 177.125 25.4 176.061 25.4H174.465V38H169.845V8.6ZM176.145 21.2C177.069 21.2 177.755 20.962 178.203 20.486C178.679 20.01 178.917 19.212 178.917 18.092V15.824C178.917 14.76 178.721 13.99 178.329 13.514C177.965 13.038 177.377 12.8 176.565 12.8H174.465V21.2H176.145Z" fill="#8C9559"/>
<path d="M21.432 57V45.384H19.24V44.04H25.368V45.384H23.24V57H21.432ZM26.4734 60.04V47.752H28.1854V48.488C28.388 48.2533 28.6334 48.0507 28.9214 47.88C29.2094 47.7093 29.5507 47.624 29.9454 47.624C30.4254 47.624 30.804 47.752 31.0814 48.008C31.3694 48.2533 31.5827 48.568 31.7214 48.952C31.86 49.3253 31.9507 49.7093 31.9934 50.104C32.036 50.488 32.0574 50.8187 32.0574 51.096V53.336C32.0574 53.9867 31.9934 54.6053 31.8654 55.192C31.7374 55.768 31.5027 56.2373 31.1614 56.6C30.8307 56.952 30.3614 57.128 29.7534 57.128C29.4227 57.128 29.1294 57.048 28.8734 56.888C28.6174 56.7173 28.388 56.5253 28.1854 56.312V60.04H26.4734ZM29.4174 55.784C29.716 55.784 29.9294 55.6773 30.0574 55.464C30.1854 55.24 30.2654 54.9413 30.2974 54.568C30.3294 54.1947 30.3454 53.784 30.3454 53.336V51.096C30.3454 50.712 30.324 50.36 30.2814 50.04C30.2387 49.7093 30.148 49.448 30.0094 49.256C29.8707 49.064 29.652 48.968 29.3534 48.968C29.1294 48.968 28.916 49.016 28.7134 49.112C28.5107 49.208 28.3347 49.32 28.1854 49.448V55.368C28.3454 55.4853 28.5267 55.5867 28.7294 55.672C28.932 55.7467 29.1614 55.784 29.4174 55.784ZM35.278 57.128C34.9153 57.128 34.5953 57.0267 34.318 56.824C34.0407 56.6107 33.822 56.344 33.662 56.024C33.502 55.6933 33.422 55.3467 33.422 54.984C33.422 54.408 33.518 53.9227 33.71 53.528C33.902 53.1333 34.1633 52.8027 34.494 52.536C34.8353 52.2587 35.2247 52.0187 35.662 51.816C36.11 51.6133 36.5793 51.416 37.07 51.224V50.568C37.07 50.1947 37.0487 49.8853 37.006 49.64C36.9633 49.3947 36.8727 49.2133 36.734 49.096C36.606 48.968 36.4087 48.904 36.142 48.904C35.9073 48.904 35.7153 48.9573 35.566 49.064C35.4273 49.1707 35.326 49.3253 35.262 49.528C35.198 49.72 35.166 49.9493 35.166 50.216V50.68L33.47 50.616C33.4913 49.592 33.726 48.84 34.174 48.36C34.622 47.8693 35.3153 47.624 36.254 47.624C37.1713 47.624 37.822 47.8747 38.206 48.376C38.59 48.8773 38.782 49.6027 38.782 50.552V54.776C38.782 55.064 38.7873 55.3413 38.798 55.608C38.8193 55.8747 38.8407 56.1253 38.862 56.36C38.894 56.584 38.9207 56.7973 38.942 57H37.374C37.342 56.8293 37.2993 56.616 37.246 56.36C37.2033 56.0933 37.1713 55.8533 37.15 55.64C37.0433 56.0027 36.8353 56.344 36.526 56.664C36.2273 56.9733 35.8113 57.128 35.278 57.128ZM35.95 55.656C36.1207 55.656 36.2807 55.608 36.43 55.512C36.5793 55.416 36.7127 55.3093 36.83 55.192C36.9473 55.064 37.0273 54.9627 37.07 54.888V52.264C36.8033 52.4133 36.5527 52.5627 36.318 52.712C36.0833 52.8613 35.8753 53.0213 35.694 53.192C35.5233 53.352 35.3847 53.5387 35.278 53.752C35.182 53.9547 35.134 54.1893 35.134 54.456C35.134 54.8293 35.2033 55.1227 35.342 55.336C35.4807 55.5493 35.6833 55.656 35.95 55.656ZM40.4265 57V47.752H42.1385V51.64H44.3305V47.752H46.0425V57H44.3305V52.888H42.1385V57H40.4265ZM50.2983 57.128C49.5409 57.128 48.9649 56.9787 48.5703 56.68C48.1863 56.3707 47.9249 55.9387 47.7863 55.384C47.6583 54.8293 47.5943 54.184 47.5943 53.448V51.32C47.5943 50.5413 47.6636 49.88 47.8023 49.336C47.9409 48.7813 48.2023 48.36 48.5863 48.072C48.9809 47.7733 49.5516 47.624 50.2983 47.624C50.9703 47.624 51.4876 47.736 51.8503 47.96C52.2236 48.1733 52.4796 48.4987 52.6183 48.936C52.7569 49.3627 52.8263 49.896 52.8263 50.536V51.08H51.2743V50.52C51.2743 50.1147 51.2476 49.7947 51.1943 49.56C51.1409 49.3253 51.0449 49.1547 50.9062 49.048C50.7676 48.9413 50.5703 48.888 50.3143 48.888C50.0369 48.888 49.8236 48.952 49.6743 49.08C49.5249 49.208 49.4236 49.4267 49.3703 49.736C49.3276 50.0347 49.3063 50.4453 49.3063 50.968V53.88C49.3063 54.6693 49.3809 55.1973 49.5303 55.464C49.6796 55.7307 49.9463 55.864 50.3303 55.864C50.6183 55.864 50.8263 55.8 50.9543 55.672C51.0929 55.5333 51.1783 55.3413 51.2103 55.096C51.2529 54.8507 51.2743 54.5733 51.2743 54.264V53.512H52.8263V54.152C52.8263 54.7707 52.7516 55.304 52.6023 55.752C52.4636 56.2 52.2076 56.5413 51.8343 56.776C51.4716 57.0107 50.9596 57.128 50.2983 57.128ZM54.3484 57V47.752H59.7244V57H58.0124V49.048H56.0604V57H54.3484ZM64.0018 57.128C63.3191 57.128 62.7804 56.9893 62.3858 56.712C61.9911 56.4347 61.7084 56.04 61.5378 55.528C61.3778 55.016 61.2978 54.4133 61.2978 53.72V51.032C61.2978 50.3387 61.3778 49.736 61.5378 49.224C61.7084 48.712 61.9911 48.3173 62.3858 48.04C62.7804 47.7627 63.3191 47.624 64.0018 47.624C64.6844 47.624 65.2178 47.7627 65.6018 48.04C65.9964 48.3173 66.2738 48.712 66.4338 49.224C66.6044 49.736 66.6898 50.3387 66.6898 51.032V53.72C66.6898 54.4133 66.6044 55.016 66.4338 55.528C66.2738 56.04 65.9964 56.4347 65.6018 56.712C65.2178 56.9893 64.6844 57.128 64.0018 57.128ZM64.0018 55.864C64.3324 55.864 64.5618 55.768 64.6898 55.576C64.8284 55.384 64.9084 55.1333 64.9298 54.824C64.9618 54.504 64.9778 54.1733 64.9778 53.832V50.936C64.9778 50.584 64.9618 50.2533 64.9298 49.944C64.9084 49.6347 64.8284 49.384 64.6898 49.192C64.5618 48.9893 64.3324 48.888 64.0018 48.888C63.6711 48.888 63.4364 48.9893 63.2978 49.192C63.1591 49.384 63.0738 49.6347 63.0418 49.944C63.0204 50.2533 63.0098 50.584 63.0098 50.936V53.832C63.0098 54.1733 63.0204 54.504 63.0418 54.824C63.0738 55.1333 63.1591 55.384 63.2978 55.576C63.4364 55.768 63.6711 55.864 64.0018 55.864ZM68.2546 60.04V47.752H69.9666V48.488C70.1693 48.2533 70.4146 48.0507 70.7026 47.88C70.9906 47.7093 71.332 47.624 71.7266 47.624C72.2066 47.624 72.5853 47.752 72.8626 48.008C73.1506 48.2533 73.364 48.568 73.5026 48.952C73.6413 49.3253 73.732 49.7093 73.7746 50.104C73.8173 50.488 73.8386 50.8187 73.8386 51.096V53.336C73.8386 53.9867 73.7746 54.6053 73.6466 55.192C73.5186 55.768 73.284 56.2373 72.9426 56.6C72.612 56.952 72.1426 57.128 71.5346 57.128C71.204 57.128 70.9106 57.048 70.6546 56.888C70.3986 56.7173 70.1693 56.5253 69.9666 56.312V60.04H68.2546ZM71.1986 55.784C71.4973 55.784 71.7106 55.6773 71.8386 55.464C71.9666 55.24 72.0466 54.9413 72.0786 54.568C72.1106 54.1947 72.1266 53.784 72.1266 53.336V51.096C72.1266 50.712 72.1053 50.36 72.0626 50.04C72.02 49.7093 71.9293 49.448 71.7906 49.256C71.652 49.064 71.4333 48.968 71.1346 48.968C70.9106 48.968 70.6973 49.016 70.4946 49.112C70.292 49.208 70.116 49.32 69.9666 49.448V55.368C70.1266 55.4853 70.308 55.5867 70.5106 55.672C70.7133 55.7467 70.9426 55.784 71.1986 55.784ZM76.4353 57V49.032H74.7073V47.752H79.8913V49.032H78.1473V57H76.4353ZM80.9265 57V47.752H82.6385V51.64H84.8305V47.752H86.5425V57H84.8305V52.888H82.6385V57H80.9265ZM89.9343 57.128C89.5716 57.128 89.2516 57.0267 88.9743 56.824C88.6969 56.6107 88.4783 56.344 88.3183 56.024C88.1583 55.6933 88.0783 55.3467 88.0783 54.984C88.0783 54.408 88.1743 53.9227 88.3663 53.528C88.5583 53.1333 88.8196 52.8027 89.1503 52.536C89.4916 52.2587 89.8809 52.0187 90.3183 51.816C90.7663 51.6133 91.2356 51.416 91.7263 51.224V50.568C91.7263 50.1947 91.7049 49.8853 91.6623 49.64C91.6196 49.3947 91.5289 49.2133 91.3903 49.096C91.2623 48.968 91.0649 48.904 90.7983 48.904C90.5636 48.904 90.3716 48.9573 90.2223 49.064C90.0836 49.1707 89.9823 49.3253 89.9183 49.528C89.8543 49.72 89.8223 49.9493 89.8223 50.216V50.68L88.1263 50.616C88.1476 49.592 88.3823 48.84 88.8303 48.36C89.2783 47.8693 89.9716 47.624 90.9103 47.624C91.8276 47.624 92.4783 47.8747 92.8623 48.376C93.2463 48.8773 93.4383 49.6027 93.4383 50.552V54.776C93.4383 55.064 93.4436 55.3413 93.4543 55.608C93.4756 55.8747 93.4969 56.1253 93.5183 56.36C93.5503 56.584 93.5769 56.7973 93.5983 57H92.0303C91.9983 56.8293 91.9556 56.616 91.9023 56.36C91.8596 56.0933 91.8276 55.8533 91.8063 55.64C91.6996 56.0027 91.4916 56.344 91.1823 56.664C90.8836 56.9733 90.4676 57.128 89.9343 57.128ZM90.6063 55.656C90.7769 55.656 90.9369 55.608 91.0863 55.512C91.2356 55.416 91.3689 55.3093 91.4863 55.192C91.6036 55.064 91.6836 54.9627 91.7263 54.888V52.264C91.4596 52.4133 91.2089 52.5627 90.9743 52.712C90.7396 52.8613 90.5316 53.0213 90.3503 53.192C90.1796 53.352 90.0409 53.5387 89.9343 53.752C89.8383 53.9547 89.7903 54.1893 89.7903 54.456C89.7903 54.8293 89.8596 55.1227 89.9983 55.336C90.1369 55.5493 90.3396 55.656 90.6063 55.656ZM94.3788 57L96.1228 53.08C95.8241 52.9627 95.5788 52.7867 95.3868 52.552C95.2054 52.3173 95.0721 52.0293 94.9868 51.688C94.9014 51.3467 94.8588 50.9627 94.8588 50.536C94.8588 50.0453 94.9228 49.624 95.0508 49.272C95.1788 48.92 95.3814 48.632 95.6588 48.408C95.9361 48.184 96.3041 48.0187 96.7628 47.912C97.2214 47.8053 97.7868 47.752 98.4588 47.752H100.251V57H98.5548V53.352C98.3841 53.352 98.2401 53.352 98.1228 53.352C98.0054 53.3413 97.8774 53.3307 97.7388 53.32L96.2188 57H94.3788ZM98.3628 52.36C98.3841 52.36 98.4161 52.36 98.4588 52.36C98.5121 52.36 98.5441 52.36 98.5548 52.36V48.728C98.5441 48.728 98.5121 48.728 98.4588 48.728C98.4161 48.728 98.3894 48.728 98.3788 48.728C97.8774 48.728 97.4774 48.792 97.1788 48.92C96.8908 49.0373 96.6881 49.2293 96.5707 49.496C96.4534 49.752 96.3948 50.0987 96.3948 50.536C96.3948 51.144 96.5281 51.5973 96.7948 51.896C97.0721 52.1947 97.5948 52.3493 98.3628 52.36ZM105.645 57V47.752H107.357V51.656H107.837L109.581 47.752H111.341L109.405 52.232L111.373 57H109.581L107.837 52.68H107.357V57H105.645ZM114.83 57.128C114.147 57.128 113.609 56.9893 113.214 56.712C112.819 56.4347 112.537 56.04 112.366 55.528C112.206 55.016 112.126 54.4133 112.126 53.72V51.032C112.126 50.3387 112.206 49.736 112.366 49.224C112.537 48.712 112.819 48.3173 113.214 48.04C113.609 47.7627 114.147 47.624 114.83 47.624C115.513 47.624 116.046 47.7627 116.43 48.04C116.825 48.3173 117.102 48.712 117.262 49.224C117.433 49.736 117.518 50.3387 117.518 51.032V53.72C117.518 54.4133 117.433 55.016 117.262 55.528C117.102 56.04 116.825 56.4347 116.43 56.712C116.046 56.9893 115.513 57.128 114.83 57.128ZM114.83 55.864C115.161 55.864 115.39 55.768 115.518 55.576C115.657 55.384 115.737 55.1333 115.758 54.824C115.79 54.504 115.806 54.1733 115.806 53.832V50.936C115.806 50.584 115.79 50.2533 115.758 49.944C115.737 49.6347 115.657 49.384 115.518 49.192C115.39 48.9893 115.161 48.888 114.83 48.888C114.499 48.888 114.265 48.9893 114.126 49.192C113.987 49.384 113.902 49.6347 113.87 49.944C113.849 50.2533 113.838 50.584 113.838 50.936V53.832C113.838 54.1733 113.849 54.504 113.87 54.824C113.902 55.1333 113.987 55.384 114.126 55.576C114.265 55.768 114.499 55.864 114.83 55.864ZM119.035 57L119.131 47.752H120.395L122.443 53.432L124.507 47.752H125.771L125.867 57H124.427V51.48L122.715 56.088H122.187L120.475 51.512V57H119.035ZM127.552 57V47.752H132.928V57H131.216V49.048H129.264V57H127.552ZM136.325 57.128C135.962 57.128 135.642 57.0267 135.365 56.824C135.088 56.6107 134.869 56.344 134.709 56.024C134.549 55.6933 134.469 55.3467 134.469 54.984C134.469 54.408 134.565 53.9227 134.757 53.528C134.949 53.1333 135.21 52.8027 135.541 52.536C135.882 52.2587 136.272 52.0187 136.709 51.816C137.157 51.6133 137.626 51.416 138.117 51.224V50.568C138.117 50.1947 138.096 49.8853 138.053 49.64C138.01 49.3947 137.92 49.2133 137.781 49.096C137.653 48.968 137.456 48.904 137.189 48.904C136.954 48.904 136.762 48.9573 136.613 49.064C136.474 49.1707 136.373 49.3253 136.309 49.528C136.245 49.72 136.213 49.9493 136.213 50.216V50.68L134.517 50.616C134.538 49.592 134.773 48.84 135.221 48.36C135.669 47.8693 136.362 47.624 137.301 47.624C138.218 47.624 138.869 47.8747 139.253 48.376C139.637 48.8773 139.829 49.6027 139.829 50.552V54.776C139.829 55.064 139.834 55.3413 139.845 55.608C139.866 55.8747 139.888 56.1253 139.909 56.36C139.941 56.584 139.968 56.7973 139.989 57H138.421C138.389 56.8293 138.346 56.616 138.293 56.36C138.25 56.0933 138.218 55.8533 138.197 55.64C138.09 56.0027 137.882 56.344 137.573 56.664C137.274 56.9733 136.858 57.128 136.325 57.128ZM136.997 55.656C137.168 55.656 137.328 55.608 137.477 55.512C137.626 55.416 137.76 55.3093 137.877 55.192C137.994 55.064 138.074 54.9627 138.117 54.888V52.264C137.85 52.4133 137.6 52.5627 137.365 52.712C137.13 52.8613 136.922 53.0213 136.741 53.192C136.57 53.352 136.432 53.5387 136.325 53.752C136.229 53.9547 136.181 54.1893 136.181 54.456C136.181 54.8293 136.25 55.1227 136.389 55.336C136.528 55.5493 136.73 55.656 136.997 55.656ZM141.473 57V47.752H143.185V51.64H145.377V47.752H147.089V57H145.377V52.888H143.185V57H141.473ZM148.817 57V47.752H150.257V53.976L153.041 47.752H154.385V57H152.977V50.728L150.209 57H148.817ZM155.426 57L157.17 53.08C156.871 52.9627 156.626 52.7867 156.434 52.552C156.252 52.3173 156.119 52.0293 156.034 51.688C155.948 51.3467 155.906 50.9627 155.906 50.536C155.906 50.0453 155.97 49.624 156.098 49.272C156.226 48.92 156.428 48.632 156.706 48.408C156.983 48.184 157.351 48.0187 157.81 47.912C158.268 47.8053 158.834 47.752 159.506 47.752H161.298V57H159.602V53.352C159.431 53.352 159.287 53.352 159.17 53.352C159.052 53.3413 158.924 53.3307 158.786 53.32L157.266 57H155.426ZM159.41 52.36C159.431 52.36 159.463 52.36 159.506 52.36C159.559 52.36 159.591 52.36 159.602 52.36V48.728C159.591 48.728 159.559 48.728 159.506 48.728C159.463 48.728 159.436 48.728 159.426 48.728C158.924 48.728 158.524 48.792 158.226 48.92C157.938 49.0373 157.735 49.2293 157.618 49.496C157.5 49.752 157.442 50.0987 157.442 50.536C157.442 51.144 157.575 51.5973 157.842 51.896C158.119 52.1947 158.642 52.3493 159.41 52.36Z" fill="black"/>
</svg>
